<svg width="170" height="170" viewBox="0 0 170 170" fill="none" xmlns="http://www.w3.org/2000/svg">
<g clip-path="url(#clip0_287_265)">
<path d="M76.7023 84.2011C75.4267 84.2011 74.3906 83.1649 74.3906 81.8894C74.3906 80.6138 75.4267 79.5776 76.7023 79.5776C77.9779 79.5776 79.0141 80.6138 79.0141 81.8894C79.0141 83.1649 77.9779 84.2011 76.7023 84.2011ZM76.7023 80.0518C75.6899 80.0518 74.8648 80.8769 74.8648 81.8894C74.8648 82.9018 75.6899 83.7269 76.7023 83.7269C77.7148 83.7269 78.5399 82.9018 78.5399 81.8894C78.5399 80.8769 77.7148 80.0518 76.7023 80.0518Z" fill="#001CCC"/>
<path d="M60.1047 84.2011C58.8291 84.2011 57.793 83.1649 57.793 81.8894C57.793 80.6138 58.8291 79.5776 60.1047 79.5776C61.3803 79.5776 62.4164 80.6138 62.4164 81.8894C62.4164 83.1649 61.3803 84.2011 60.1047 84.2011ZM60.1047 80.0518C59.0923 80.0518 58.2672 80.8769 58.2672 81.8894C58.2672 82.9018 59.0923 83.7269 60.1047 83.7269C61.1171 83.7269 61.9422 82.9018 61.9422 81.8894C61.9422 80.8769 61.1171 80.0518 60.1047 80.0518Z" fill="#001CCC"/>
<path d="M51.8059 75.9026C50.5303 75.9026 49.4941 74.8665 49.4941 73.5909C49.4941 72.3153 50.5303 71.2792 51.8059 71.2792C53.0814 71.2792 54.1176 72.3153 54.1176 73.5909C54.1176 74.8665 53.0814 75.9026 51.8059 75.9026ZM51.8059 71.7534C50.7934 71.7534 49.9683 72.5785 49.9683 73.5909C49.9683 74.6033 50.7934 75.4284 51.8059 75.4284C52.8183 75.4284 53.6434 74.6033 53.6434 73.5909C53.6434 72.5785 52.8183 71.7534 51.8059 71.7534Z" fill="#001CCC"/>
<path d="M51.8059 67.6041C50.5303 67.6041 49.4941 66.568 49.4941 65.2924C49.4941 64.0168 50.5303 62.9807 51.8059 62.9807C53.0814 62.9807 54.1176 64.0168 54.1176 65.2924C54.1176 66.568 53.0814 67.6041 51.8059 67.6041ZM51.8059 63.4549C50.7934 63.4549 49.9683 64.28 49.9683 65.2924C49.9683 66.3048 50.7934 67.1299 51.8059 67.1299C52.8183 67.1299 53.6434 66.3048 53.6434 65.2924C53.6434 64.28 52.8183 63.4549 51.8059 63.4549Z" fill="#001CCC"/>
<path d="M68.4035 59.3057C67.1279 59.3057 66.0918 58.2696 66.0918 56.994C66.0918 55.7184 67.1279 54.6823 68.4035 54.6823C69.6791 54.6823 70.7152 55.7184 70.7152 56.994C70.7152 58.2696 69.6791 59.3057 68.4035 59.3057ZM68.4035 55.1564C67.3911 55.1564 66.566 55.9816 66.566 56.994C66.566 58.0064 67.3911 58.8315 68.4035 58.8315C69.4159 58.8315 70.241 58.0064 70.241 56.994C70.241 55.9816 69.4159 55.1564 68.4035 55.1564Z" fill="#001CCC"/>
<path d="M76.7023 59.3057C75.4267 59.3057 74.3906 58.2696 74.3906 56.994C74.3906 55.7184 75.4267 54.6823 76.7023 54.6823C77.9779 54.6823 79.0141 55.7184 79.0141 56.994C79.0141 58.2696 77.9779 59.3057 76.7023 59.3057ZM76.7023 55.1564C75.6899 55.1564 74.8648 55.9816 74.8648 56.994C74.8648 58.0064 75.6899 58.8315 76.7023 58.8315C77.7148 58.8315 78.5399 58.0064 78.5399 56.994C78.5399 55.9816 77.7148 55.1564 76.7023 55.1564Z" fill="#001CCC"/>
<path d="M60.1047 59.3057C58.8291 59.3057 57.793 58.2696 57.793 56.994C57.793 55.7184 58.8291 54.6823 60.1047 54.6823C61.3803 54.6823 62.4164 55.7184 62.4164 56.994C62.4164 58.2696 61.3803 59.3057 60.1047 59.3057ZM60.1047 55.1564C59.0923 55.1564 58.2672 55.9816 58.2672 56.994C58.2672 58.0064 59.0923 58.8315 60.1047 58.8315C61.1171 58.8315 61.9422 58.0064 61.9422 56.994C61.9422 55.9816 61.1171 55.1564 60.1047 55.1564Z" fill="#001CCC"/>
<path d="M84.9992 75.9026C83.7236 75.9026 82.6875 74.8665 82.6875 73.5909C82.6875 72.3153 83.7236 71.2792 84.9992 71.2792C86.2748 71.2792 87.3109 72.3153 87.3109 73.5909C87.3109 74.8665 86.2748 75.9026 84.9992 75.9026ZM84.9992 71.7534C83.9868 71.7534 83.1617 72.5785 83.1617 73.5909C83.1617 74.6033 83.9868 75.4284 84.9992 75.4284C86.0116 75.4284 86.8367 74.6033 86.8367 73.5909C86.8367 72.5785 86.0116 71.7534 84.9992 71.7534Z" fill="#001CCC"/>
<path d="M84.9992 67.6041C83.7236 67.6041 82.6875 66.568 82.6875 65.2924C82.6875 64.0168 83.7236 62.9807 84.9992 62.9807C86.2748 62.9807 87.3109 64.0168 87.3109 65.2924C87.3109 66.568 86.2748 67.6041 84.9992 67.6041ZM84.9992 63.4549C83.9868 63.4549 83.1617 64.28 83.1617 65.2924C83.1617 66.3048 83.9868 67.1299 84.9992 67.1299C86.0116 67.1299 86.8367 66.3048 86.8367 65.2924C86.8367 64.28 86.0116 63.4549 84.9992 63.4549Z" fill="#001CCC"/>
<path d="M51.8067 93.6257C51.0551 93.6257 50.4434 93.014 50.4434 92.2624C50.4434 91.5108 51.0551 90.899 51.8067 90.899H60.1051C60.8567 90.899 61.4685 91.5108 61.4685 92.2624C61.4685 93.014 60.8567 93.6257 60.1051 93.6257H51.8067Z" fill="#001CCC"/>
<path d="M76.7012 93.6257C75.9496 93.6257 75.3379 93.014 75.3379 92.2624C75.3379 91.5108 75.9496 90.899 76.7012 90.899H84.9997C85.7513 90.899 86.363 91.5108 86.363 92.2624C86.363 93.014 85.7513 93.6257 84.9997 93.6257H76.7012Z" fill="#001CCC"/>
<path d="M51.806 133.041C51.3792 133.041 50.9714 132.837 50.7154 132.496L46.4547 126.817H42.8318L42.2604 127.249L42.2082 126.817H28.9829C28.0771 126.817 27.1904 126.45 26.5526 125.81C25.9148 125.169 25.5449 124.283 25.5449 123.379V104.708C25.5449 103.802 25.9124 102.915 26.5526 102.277C27.1928 101.64 28.0795 101.27 28.9829 101.27H37.9926V42.4692C37.9926 41.0182 38.5806 39.5979 39.6073 38.5713C40.6339 37.5447 42.0541 36.9567 43.5052 36.9567H138.938C140.389 36.9567 141.809 37.5447 142.835 38.5713C143.862 39.5979 144.45 41.0182 144.45 42.4692V108.857C144.45 110.308 143.862 111.728 142.835 112.755C141.809 113.781 140.389 114.369 138.938 114.369H69.7639V115.081C69.7639 115.439 69.6193 115.792 69.3656 116.046C69.1119 116.299 68.761 116.444 68.4006 116.444H61.4654V123.379C61.4654 124.285 61.0979 125.172 60.4578 125.81C59.8176 126.447 58.9308 126.817 58.0275 126.817H49.8618L52.8943 130.86C53.3448 131.462 53.2239 132.318 52.6216 132.768C52.3845 132.946 52.1 133.041 51.8036 133.041H51.806ZM46.4689 124.091H58.7412V103.996H28.2739V124.091H41.881L41.082 117.381L50.2246 121.288L46.4713 124.093L46.4689 124.091ZM43.5075 39.6833C41.9711 39.6833 40.7216 40.9328 40.7216 42.4692V101.27H58.0299C58.9356 101.27 59.8223 101.637 60.4601 102.277C61.0979 102.918 61.4678 103.804 61.4678 104.708V113.717H67.0396V74.7882L66.5654 74.6198C64.9247 74.0413 63.642 72.6993 63.1322 71.0349C62.6225 69.3705 62.9378 67.5424 63.9716 66.1436C65.0077 64.7447 66.665 63.9077 68.4029 63.9077C70.1409 63.9077 71.8006 64.7423 72.8343 66.1436C73.8681 67.5424 74.181 69.3705 73.6737 71.0349C73.1639 72.6993 71.8812 74.039 70.2405 74.6175L69.7663 74.7858V111.64H138.94C139.684 111.64 140.384 111.351 140.91 110.825C141.437 110.299 141.726 109.599 141.726 108.855V42.4716C141.726 41.739 141.429 41.0205 140.91 40.5013C140.384 39.9749 139.684 39.6857 138.94 39.6857H43.5075V39.6833ZM68.4029 66.6533C67.6585 66.6533 66.959 66.9426 66.4327 67.4689C65.6336 68.268 65.3965 69.4606 65.8304 70.5062C66.2619 71.5518 67.272 72.2251 68.4029 72.2251C69.1474 72.2251 69.8469 71.9359 70.3732 71.4095C70.8996 70.8832 71.1889 70.1837 71.1889 69.4392C71.1889 68.3083 70.5131 67.2982 69.4675 66.8667C69.1285 66.7268 68.7704 66.6533 68.4006 66.6533H68.4029Z" fill="#001CCC"/>
<path d="M47.6574 46.8579C46.3818 46.8579 45.3457 45.8218 45.3457 44.5462C45.3457 43.2706 46.3818 42.2345 47.6574 42.2345C48.933 42.2345 49.9691 43.2706 49.9691 44.5462C49.9691 45.8218 48.933 46.8579 47.6574 46.8579ZM47.6574 42.7087C46.645 42.7087 45.8199 43.5338 45.8199 44.5462C45.8199 45.5586 46.645 46.3837 47.6574 46.3837C48.6698 46.3837 49.4949 45.5586 49.4949 44.5462C49.4949 43.5338 48.6698 42.7087 47.6574 42.7087Z" fill="#001CCC"/>
<path d="M126.491 46.8579C125.216 46.8579 124.18 45.8218 124.18 44.5462C124.18 43.2706 125.216 42.2345 126.491 42.2345C127.767 42.2345 128.803 43.2706 128.803 44.5462C128.803 45.8218 127.767 46.8579 126.491 46.8579ZM126.491 42.7087C125.479 42.7087 124.654 43.5338 124.654 44.5462C124.654 45.5586 125.479 46.3837 126.491 46.3837C127.504 46.3837 128.329 45.5586 128.329 44.5462C128.329 43.5338 127.504 42.7087 126.491 42.7087Z" fill="#001CCC"/>
<path d="M109.896 46.8579C108.62 46.8579 107.584 45.8218 107.584 44.5462C107.584 43.2706 108.62 42.2345 109.896 42.2345C111.171 42.2345 112.207 43.2706 112.207 44.5462C112.207 45.8218 111.171 46.8579 109.896 46.8579ZM109.896 42.7087C108.883 42.7087 108.058 43.5338 108.058 44.5462C108.058 45.5586 108.883 46.3837 109.896 46.3837C110.908 46.3837 111.733 45.5586 111.733 44.5462C111.733 43.5338 110.908 42.7087 109.896 42.7087Z" fill="#001CCC"/>
<path d="M118.195 46.8579C116.919 46.8579 115.883 45.8218 115.883 44.5462C115.883 43.2706 116.919 42.2345 118.195 42.2345C119.47 42.2345 120.506 43.2706 120.506 44.5462C120.506 45.8218 119.47 46.8579 118.195 46.8579ZM118.195 42.7087C117.182 42.7087 116.357 43.5338 116.357 44.5462C116.357 45.5586 117.182 46.3837 118.195 46.3837C119.207 46.3837 120.032 45.5586 120.032 44.5462C120.032 43.5338 119.207 42.7087 118.195 42.7087Z" fill="#001CCC"/>
<path d="M134.79 46.8579C133.515 46.8579 132.479 45.8218 132.479 44.5462C132.479 43.2706 133.515 42.2345 134.79 42.2345C136.066 42.2345 137.102 43.2706 137.102 44.5462C137.102 45.8218 136.066 46.8579 134.79 46.8579ZM134.79 42.7087C133.778 42.7087 132.953 43.5338 132.953 44.5462C132.953 45.5586 133.778 46.3837 134.79 46.3837C135.803 46.3837 136.628 45.5586 136.628 44.5462C136.628 43.5338 135.803 42.7087 134.79 42.7087Z" fill="#001CCC"/>
<path d="M99.5215 106.071C99.1635 106.071 98.8102 105.926 98.5565 105.673C98.3028 105.419 98.1582 105.068 98.1582 104.708V81.8869C98.1582 81.1353 98.7699 80.5236 99.5215 80.5236H134.79C135.148 80.5236 135.501 80.6682 135.755 80.9219C136.009 81.1756 136.153 81.5265 136.153 81.8869V104.708C136.153 105.066 136.009 105.419 135.755 105.673C135.501 105.926 135.15 106.071 134.79 106.071H99.5215ZM100.885 103.344H133.427V83.2502H100.885V103.344Z" fill="#001CCC"/>
<path d="M99.5215 74.9517C98.7699 74.9517 98.1582 74.34 98.1582 73.5884C98.1582 72.8368 98.7699 72.2251 99.5215 72.2251H134.79C135.542 72.2251 136.153 72.8368 136.153 73.5884C136.153 74.34 135.542 74.9517 134.79 74.9517H99.5215Z" fill="#001CCC"/>
<path d="M99.5215 66.6533C99.1635 66.6533 98.8102 66.5087 98.5565 66.255C98.3028 66.0013 98.1582 65.6504 98.1582 65.29V52.8423C98.1582 52.0907 98.7699 51.479 99.5215 51.479H134.79C135.148 51.479 135.501 51.6236 135.755 51.8773C136.009 52.131 136.153 52.4819 136.153 52.8423V65.29C136.153 65.648 136.009 66.0013 135.755 66.255C135.501 66.5087 135.15 66.6533 134.79 66.6533H99.5215ZM100.885 63.9267H133.427V54.2056H100.885V63.9267Z" fill="#001CCC"/>
<path d="M51.8059 59.3246C50.5303 59.3246 49.4941 58.2885 49.4941 57.0129C49.4941 55.7373 50.5303 54.7012 51.8059 54.7012C53.0814 54.7012 54.1176 55.7373 54.1176 57.0129C54.1176 58.2885 53.0814 59.3246 51.8059 59.3246ZM51.8059 55.1754C50.7934 55.1754 49.9683 56.0005 49.9683 57.0129C49.9683 58.0253 50.7934 58.8504 51.8059 58.8504C52.8183 58.8504 53.6434 58.0253 53.6434 57.0129C53.6434 56.0005 52.8183 55.1754 51.8059 55.1754Z" fill="#001CCC"/>
<path d="M84.9992 59.3246C83.7236 59.3246 82.6875 58.2885 82.6875 57.0129C82.6875 55.7373 83.7236 54.7012 84.9992 54.7012C86.2748 54.7012 87.3109 55.7373 87.3109 57.0129C87.3109 58.2885 86.2748 59.3246 84.9992 59.3246ZM84.9992 55.1754C83.9868 55.1754 83.1617 56.0005 83.1617 57.0129C83.1617 58.0253 83.9868 58.8504 84.9992 58.8504C86.0116 58.8504 86.8367 58.0253 86.8367 57.0129C86.8367 56.0005 86.0116 55.1754 84.9992 55.1754Z" fill="#001CCC"/>
<path d="M84.9992 84.2011C83.7236 84.2011 82.6875 83.1649 82.6875 81.8894C82.6875 80.6138 83.7236 79.5776 84.9992 79.5776C86.2748 79.5776 87.3109 80.6138 87.3109 81.8894C87.3109 83.1649 86.2748 84.2011 84.9992 84.2011ZM84.9992 80.0518C83.9868 80.0518 83.1617 80.8769 83.1617 81.8894C83.1617 82.9018 83.9868 83.7269 84.9992 83.7269C86.0116 83.7269 86.8367 82.9018 86.8367 81.8894C86.8367 80.8769 86.0116 80.0518 84.9992 80.0518Z" fill="#001CCC"/>
<path d="M51.8059 84.2011C50.5303 84.2011 49.4941 83.1649 49.4941 81.8894C49.4941 80.6138 50.5303 79.5776 51.8059 79.5776C53.0814 79.5776 54.1176 80.6138 54.1176 81.8894C54.1176 83.1649 53.0814 84.2011 51.8059 84.2011ZM51.8059 80.0518C50.7934 80.0518 49.9683 80.8769 49.9683 81.8894C49.9683 82.9018 50.7934 83.7269 51.8059 83.7269C52.8183 83.7269 53.6434 82.9018 53.6434 81.8894C53.6434 80.8769 52.8183 80.0518 51.8059 80.0518Z" fill="#001CCC"/>
</g>
<defs>
<clipPath id="clip0_287_265">
<rect width="170" height="170" fill="white"/>
</clipPath>
</defs>
</svg>
