<svg width="170" height="170" viewBox="0 0 170 170" fill="none" xmlns="http://www.w3.org/2000/svg">
<g clip-path="url(#clip0_287_254)">
<path d="M78.7707 35.4772C77.4951 35.4772 76.459 34.4411 76.459 33.1655C76.459 31.8899 77.4951 30.8538 78.7707 30.8538C80.0463 30.8538 81.0824 31.8899 81.0824 33.1655C81.0824 34.4411 80.0463 35.4772 78.7707 35.4772ZM78.7707 31.328C77.7583 31.328 76.9332 32.1531 76.9332 33.1655C76.9332 34.1779 77.7583 35.003 78.7707 35.003C79.7831 35.003 80.6082 34.1779 80.6082 33.1655C80.6082 32.1531 79.7831 31.328 78.7707 31.328Z" fill="#001CCC"/>
<path d="M84.9942 34.5288C84.2426 34.5288 83.6309 33.917 83.6309 33.1654C83.6309 32.4138 84.2426 31.8021 84.9942 31.8021H91.218C91.9696 31.8021 92.5813 32.4138 92.5813 33.1654C92.5813 33.917 91.9696 34.5288 91.218 34.5288H84.9942Z" fill="#001CCC"/>
<path d="M43.5016 42.8391C43.1413 42.8391 42.788 42.6921 42.5343 42.436L40.2724 40.1741L39.7958 40.461C38.7526 41.0893 37.5671 41.4781 36.3531 41.5895V41.5658H35.6442C33.2542 41.5516 31.0089 40.4894 29.4891 38.6471C27.9669 36.8025 27.3481 34.3983 27.7938 32.0487C28.2372 29.699 29.6906 27.6861 31.7795 26.5266C32.9673 25.8651 34.3164 25.5166 35.6774 25.5166C36.6732 25.5166 37.6477 25.6992 38.5771 26.0596C40.8058 26.9226 42.5201 28.7198 43.2835 30.9841C44.0446 33.2508 43.7625 35.7166 42.5058 37.7509L42.2095 38.2299L44.4738 40.4941C44.7322 40.7502 44.8792 41.1035 44.8792 41.4639C44.8792 41.8243 44.7322 42.1776 44.4761 42.4312C44.2177 42.6921 43.8644 42.8391 43.504 42.8391H43.5016ZM35.6418 28.3144C34.2311 28.3144 32.901 28.8644 31.9004 29.8603C30.8975 30.8608 30.3427 32.1933 30.3427 33.6112C30.3427 35.029 30.8951 36.3615 31.9004 37.3621C32.8986 38.3579 34.2287 38.908 35.6418 38.908C37.0597 38.908 38.3898 38.3555 39.388 37.355C40.3862 36.3568 40.9386 35.0266 40.9386 33.6135C40.9386 32.2004 40.3885 30.8703 39.388 29.8697C38.3898 28.8692 37.0597 28.3167 35.6466 28.3167H35.6418V28.3144Z" fill="#001CCC"/>
<path d="M89.1441 144.483C87.6931 144.483 86.2729 143.895 85.2462 142.869C84.2196 141.842 83.6316 140.422 83.6316 138.971V129.961H60.0995C58.6484 129.961 57.2282 129.373 56.2016 128.347C55.1749 127.32 54.5869 125.9 54.5869 124.449V109.338H36.1786C34.4477 109.334 32.8212 108.655 31.5978 107.432C30.3744 106.209 29.6963 104.58 29.6915 102.849V79.7815C29.6963 78.0531 30.3744 76.4242 31.5978 75.2008C32.8236 73.9773 34.4501 73.2992 36.1809 73.2945H54.5869V65.648H34.168C31.0975 65.648 28.2334 63.9955 26.6994 61.3352C25.1653 58.675 25.1653 55.3698 26.6994 52.7095C28.2358 50.0493 31.0975 48.3967 34.168 48.3967H54.5869V31.0885C54.5869 29.6374 55.1749 28.2172 56.2016 27.1906C57.2282 26.1639 58.6484 25.5759 60.0995 25.5759H109.89C111.341 25.5759 112.762 26.1639 113.788 27.1906C114.815 28.2172 115.403 29.6374 115.403 31.0885V46.3221H138.935C140.455 46.3932 141.875 47.0618 142.921 48.2023C143.966 49.3427 144.509 50.8222 144.447 52.3681V78.2451C144.507 79.8123 143.964 81.2989 142.921 82.4394C141.875 83.5798 140.448 84.2485 138.902 84.3196H115.403V91.4065H138.935C140.386 91.4065 141.806 91.9945 142.833 93.0211C143.874 94.062 144.447 95.4466 144.447 96.919V138.971C144.447 140.422 143.859 141.842 142.833 142.869C141.806 143.895 140.386 144.483 138.935 144.483H89.1441ZM89.1441 94.1307C87.6077 94.1307 86.3582 95.3803 86.3582 96.9167V138.969C86.3582 140.505 87.6077 141.754 89.1441 141.754H138.935C139.668 141.754 140.386 141.458 140.905 140.939C141.424 140.42 141.721 139.701 141.721 138.969V96.9167C141.721 96.1722 141.432 95.4727 140.905 94.9464C140.386 94.4271 139.67 94.1307 138.935 94.1307H89.1441ZM57.3136 124.446C57.3136 125.983 58.5631 127.232 60.0995 127.232H83.6316V123.735H78.771C78.0194 123.735 77.4077 123.123 77.4077 122.372C77.4077 121.62 78.0194 121.008 78.771 121.008H83.6316V117.511H57.3136V124.446ZM57.3136 114.784H83.6316V96.9143C83.6316 95.4419 84.2053 94.0572 85.2462 93.0164C86.2729 91.9897 87.6931 91.4017 89.1441 91.4017H112.676V84.3148H105.741C104.221 84.2437 102.801 83.5751 101.755 82.4346C100.71 81.2942 100.167 79.8147 100.229 78.2688V52.3918C100.169 50.8246 100.71 49.338 101.755 48.1975C102.801 47.0571 104.228 46.3885 105.774 46.3174H112.676V40.7455H57.3136V48.392H81.8818C84.9522 48.392 87.8164 50.0445 89.3504 52.7048C90.8844 55.365 90.8844 58.6702 89.3504 61.3305C87.814 63.9907 84.9522 65.6433 81.8818 65.6433H57.3136V73.2897H69.4981C71.2265 73.2945 72.8554 73.9726 74.0788 75.196C75.3023 76.4218 75.9804 78.0483 75.9851 79.7791V102.846C75.9804 104.575 75.3023 106.204 74.0788 107.427C72.8554 108.651 71.2265 109.329 69.4957 109.334H57.3136V114.782V114.784ZM32.4182 98.472V102.849C32.4182 104.923 34.1063 106.609 36.1786 106.609H69.4981C70.501 106.609 71.447 106.218 72.1583 105.509C72.8696 104.798 73.2609 103.854 73.2609 102.849V95.8331L64.4953 89.275L60.2228 93.5498C59.9667 93.8083 59.6134 93.9553 59.253 93.9553C58.8927 93.9553 58.5489 93.8154 58.2904 93.557L58.115 93.3815L51.3671 86.636L32.4206 98.472H32.4182ZM36.1786 76.0187C34.104 76.0187 32.4182 77.7069 32.4182 79.7791V95.2522L50.8289 83.7434C51.0471 83.6059 51.2984 83.5324 51.5568 83.5324C51.9219 83.5324 52.2634 83.6747 52.5218 83.9331L59.2483 90.6596L63.4023 86.5056C63.6607 86.2496 64.0021 86.1073 64.3673 86.1073C64.666 86.1073 64.9505 86.2021 65.1876 86.3823L73.2585 92.4236V79.7791C73.2585 77.7045 71.5703 76.0187 69.4981 76.0187H36.1809H36.1786ZM105.634 49.0582C104.001 49.3048 102.822 50.7867 102.955 52.4345V78.2238C102.822 79.8526 104.001 81.3345 105.634 81.5811L105.687 81.5882H138.987L139.039 81.5811C140.673 81.3345 141.851 79.8526 141.718 78.2048V52.4155C141.851 50.7867 140.673 49.3048 139.039 49.0582L138.987 49.0511H105.687L105.634 49.0582ZM34.1656 51.1233C32.0649 51.1233 30.1088 52.2543 29.0585 54.0729C28.0081 55.8914 28.0081 58.151 29.0585 59.9719C30.1088 61.7904 32.0673 62.9214 34.1656 62.9214H81.8818C83.9825 62.9214 85.9385 61.7904 86.9889 59.9719C88.0392 58.1533 88.0392 55.8938 86.9889 54.0729C85.9385 52.2543 83.9801 51.1233 81.8818 51.1233H34.1656ZM60.0971 28.3026C58.5607 28.3026 57.3112 29.5521 57.3112 31.0885V38.0236H112.674V31.0885C112.674 30.344 112.385 29.6445 111.858 29.1182C111.332 28.5918 110.632 28.3026 109.888 28.3026H60.0971Z" fill="#001CCC"/>
<path d="M109.891 65.648C109.533 65.648 109.179 65.5034 108.926 65.2497C108.672 64.996 108.527 64.6451 108.527 64.2847V55.9862C108.527 55.2346 109.139 54.6229 109.891 54.6229H134.786C135.144 54.6229 135.497 54.7676 135.751 55.0212C136.005 55.2749 136.149 55.6259 136.149 55.9862V64.2847C136.149 64.6427 136.005 64.996 135.751 65.2497C135.497 65.5034 135.146 65.648 134.786 65.648H109.891ZM111.254 62.9214H133.423V57.3496H111.254V62.9214Z" fill="#001CCC"/>
<path d="M109.891 71.8718C109.139 71.8718 108.527 71.2601 108.527 70.5085C108.527 69.7569 109.139 69.1451 109.891 69.1451H120.076C120.828 69.1451 121.44 69.7569 121.44 70.5085C121.44 71.2601 120.828 71.8718 120.076 71.8718H109.891Z" fill="#001CCC"/>
<path d="M109.891 78.0957C109.139 78.0957 108.527 77.4839 108.527 76.7323C108.527 75.9807 109.139 75.369 109.891 75.369H120.076C120.828 75.369 121.44 75.9807 121.44 76.7323C121.44 77.4839 120.828 78.0957 120.076 78.0957H109.891Z" fill="#001CCC"/>
<path d="M103.661 131.765C103.405 131.765 103.156 131.694 102.943 131.562C102.542 131.31 102.303 130.879 102.303 130.404V105.507C102.3 105.025 102.54 104.587 102.948 104.333C103.163 104.2 103.412 104.129 103.666 104.129C103.877 104.129 104.09 104.179 104.28 104.276L129.178 116.724C129.643 116.959 129.93 117.428 129.925 117.95C129.925 118.467 129.636 118.934 129.176 119.166L104.283 131.614C104.088 131.713 103.875 131.765 103.664 131.768L103.661 131.765ZM105.029 128.192L125.503 117.957L105.029 107.695V128.192Z" fill="#001CCC"/>
</g>
<defs>
<clipPath id="clip0_287_254">
<rect width="170" height="170" fill="white"/>
</clipPath>
</defs>
</svg>
