<svg width="170" height="170" viewBox="0 0 170 170" fill="none" xmlns="http://www.w3.org/2000/svg">
<g clip-path="url(#clip0_287_300)">
<path fill-rule="evenodd" clip-rule="evenodd" d="M27.3266 144.9C26.8524 144.9 26.4209 144.661 26.1719 144.26C25.9396 143.855 25.942 143.338 26.1838 142.918L31.8196 132.453H27.393C26.8619 132.453 26.3758 132.142 26.1553 131.658C25.9325 131.177 26.0131 130.606 26.3569 130.203L50.944 101.156C51.2001 100.855 51.5771 100.681 51.9778 100.681H77.0747L76.6314 99.6809C76.3563 99.0597 76.1477 98.4124 76.0149 97.7533L75.8987 97.1842H71.9771C71.4318 97.1842 70.9362 96.8689 70.7181 96.3805C70.3103 95.4439 69.9191 94.4742 69.5516 93.4973L69.3785 93.035H54.3132C53.6802 93.035 53.1348 92.6059 52.9878 91.9918C52.9878 91.9874 52.9851 91.9713 52.9808 91.9457C52.9782 91.9298 52.9749 91.9102 52.9712 91.8874C52.4141 88.587 50.4106 71.6202 65.7841 61.7522L66.0567 61.5767L66.1042 61.2566C69.011 41.6746 83.934 27.01 84.5671 26.3936C84.8255 26.1399 85.1645 26 85.5249 26C85.8853 26 86.222 26.1375 86.4781 26.3888L86.5397 26.4529C89.1312 29.0894 102.2 43.1517 104.943 61.2566L104.991 61.5743L105.259 61.7474C120.504 71.6155 118.489 88.5823 117.929 91.8827C117.929 91.8827 117.913 91.9847 117.908 92.0084C117.763 92.6011 117.22 93.0303 116.587 93.0303H101.522L101.349 93.4902C100.984 94.4671 100.59 95.4392 100.18 96.3805C99.9619 96.8642 99.4758 97.1771 98.94 97.1771H95.0658L94.9496 97.7462C94.8145 98.4053 94.6082 99.0549 94.3332 99.6738L93.8898 100.674H118.987C119.385 100.674 119.764 100.847 120.023 101.151L144.605 130.193C144.951 130.599 145.032 131.17 144.812 131.651C144.589 132.133 144.103 132.446 143.574 132.446H139.147L144.546 142.47L144.771 142.89C144.994 143.307 144.985 143.819 144.745 144.225C144.501 144.637 144.053 144.893 143.574 144.893H27.3266V144.9ZM29.6691 142.171H141.302L136.053 132.45H34.9185L29.6691 142.171ZM30.3449 129.724H140.627L118.366 103.406H91.4666L91.2746 103.553C89.6244 104.826 87.5687 105.528 85.4846 105.528C83.4005 105.528 81.3449 104.826 79.6947 103.553L79.5026 103.406H52.6037L30.3449 129.724ZM78.9644 98.135C79.6141 99.9227 80.9869 101.381 82.7343 102.137C83.6068 102.514 84.5315 102.706 85.4846 102.706C86.4378 102.706 87.3601 102.514 88.235 102.137C89.9824 101.383 91.3552 99.9251 92.0049 98.135L92.351 97.1819H78.6206L78.9668 98.135H78.9644ZM71.7566 50.6678C69.4615 56.1211 68.257 61.8849 68.174 67.8006C68.0341 76.7795 69.5705 85.5925 72.7429 93.9953L72.916 94.4552H98.0485L98.2216 93.9953C101.394 85.5901 102.93 76.7771 102.79 67.7982C102.707 61.8826 101.501 56.1187 99.2079 50.6678L98.8997 49.9375L98.2074 50.3216C94.3237 52.4745 89.9231 53.6102 85.4823 53.6102C81.0414 53.6102 76.6408 52.4721 72.7572 50.3216L72.0648 49.9375L71.7566 50.6678ZM105.517 66.781C105.605 74.418 104.642 82.0312 102.658 89.4098L102.416 90.306H115.461L115.542 89.6872C116.692 80.8671 113.384 72.1015 106.696 66.2404L105.498 65.1901L105.515 66.7834L105.517 66.781ZM64.269 66.2381C57.5757 72.0992 54.2682 80.8647 55.4228 89.6872L55.5035 90.306H68.551L68.3068 89.4098C66.3104 82.036 65.3478 74.4227 65.4474 66.7834L65.4687 65.1877L64.269 66.2381ZM84.9559 29.8884C80.3585 34.9884 76.4749 40.6907 73.4163 46.8315L73.1175 47.4314L73.6984 47.7657C77.2739 49.8166 81.3401 50.9001 85.4633 50.9001C89.5864 50.9001 93.6527 49.8166 97.2281 47.7657L97.809 47.4314L97.5103 46.8315C94.4636 40.6883 90.5941 34.9884 86.0134 29.8884L85.4846 29.3004L84.9559 29.8884ZM80.867 82.2093C79.416 82.2093 77.9958 81.6213 76.9691 80.5947C75.9425 79.568 75.3545 78.1478 75.3545 76.6968V68.3983C75.3545 66.9473 75.9425 65.527 76.9691 64.5004C77.9958 63.4737 79.416 62.8857 80.867 62.8857H89.1655C90.6166 62.8857 92.0368 63.4737 93.0634 64.5004C94.0901 65.527 94.6781 66.9473 94.6781 68.3983V76.6968C94.6781 78.1478 94.0901 79.568 93.0634 80.5947C92.0368 81.6213 90.6166 82.2093 89.1655 82.2093H80.867ZM80.867 65.6124C79.3306 65.6124 78.0811 66.8619 78.0811 68.3983V76.6968C78.0811 78.2332 79.3306 79.4827 80.867 79.4827H89.1655C89.91 79.4827 90.6094 79.1934 91.1358 78.6671C91.6622 78.1407 91.9514 77.4413 91.9514 76.6968V68.3983C91.9514 67.6538 91.6622 66.9544 91.1358 66.428C90.6094 65.9016 89.91 65.6124 89.1655 65.6124H80.867ZM75.3545 116.115C75.3545 116.866 75.9662 117.478 76.7178 117.478C77.4694 117.478 78.0811 116.866 78.0811 116.115V109.891C78.0811 109.53 77.9365 109.179 77.6828 108.926C77.4291 108.672 77.0758 108.527 76.7178 108.527C75.9662 108.527 75.3545 109.139 75.3545 109.891V116.115ZM93.3155 117.478C92.5639 117.478 91.9521 116.866 91.9521 116.115V109.891C91.9521 109.139 92.5639 108.527 93.3155 108.527C93.6735 108.527 94.0268 108.672 94.2805 108.926C94.5342 109.179 94.6788 109.53 94.6788 109.891V116.115C94.6788 116.866 94.0671 117.478 93.3155 117.478ZM83.6533 122.338C83.6533 123.09 84.265 123.702 85.0166 123.702C85.7682 123.702 86.38 123.09 86.38 122.338V114.04C86.38 113.679 86.2353 113.329 85.9816 113.075C85.7279 112.821 85.3747 112.677 85.0166 112.677C84.265 112.677 83.6533 113.288 83.6533 114.04V122.338Z" fill="#001CCC"/>
</g>
<defs>
<clipPath id="clip0_287_300">
<rect width="170" height="170" fill="white"/>
</clipPath>
</defs>
</svg>
