<svg width="170" height="170" viewBox="0 0 170 170" fill="none" xmlns="http://www.w3.org/2000/svg">
<g clip-path="url(#clip0_287_292)">
<path fill-rule="evenodd" clip-rule="evenodd" d="M42.3908 144.37C41.7174 144.37 41.1365 143.867 41.0417 143.198L40.5058 139.16L40.0933 139.016C38.2676 138.373 36.5842 137.427 35.0905 136.201V135.464L30.7848 137.266C30.5832 137.359 30.3936 137.401 30.1944 137.401C29.7012 137.401 29.246 137.133 29.0042 136.704L25.7227 131.011C25.386 130.423 25.5401 129.667 26.0784 129.254L29.2863 126.791L29.2081 126.364C28.8453 124.384 28.8453 122.376 29.2081 120.396L29.2839 119.977L26.0878 117.43C25.5401 117.011 25.386 116.252 25.7227 115.662L29.0777 109.988C29.3219 109.566 29.7747 109.305 30.2608 109.305C30.441 109.305 30.6164 109.341 30.7848 109.412L34.4005 110.95L34.7348 110.668C36.295 109.345 38.0637 108.328 39.9913 107.643L40.3991 107.496L40.9326 103.496C41.0203 102.818 41.6012 102.308 42.2841 102.308H48.8375C49.5298 102.308 50.1178 102.818 50.2079 103.494L50.7438 107.494L51.1516 107.638C53.0792 108.323 54.848 109.343 56.4081 110.664L56.7376 110.943L60.4577 109.409C60.5834 109.357 60.7209 109.326 60.8608 109.314L61.0623 109.3L61.2259 109.182C65.5293 106.071 70.6127 104.388 75.9213 104.316C76.4097 104.316 76.8389 104.549 77.0926 104.957L78.4085 107.064V107.057L84.9998 117.599L91.935 106.502V97.7156L91.0696 97.9076C89.0518 98.3581 86.9796 98.5857 84.9121 98.5857C79.8714 98.5857 74.9065 97.2366 70.5605 94.6807C64.358 91.0365 59.8104 85.2323 57.7572 78.3375L57.6054 77.8301H53.8806C51.8534 77.8301 49.9495 77.0405 48.515 75.6061C47.083 74.174 46.2934 72.2677 46.2934 70.2429V69.5316H45.5821C44.1311 69.5316 42.7109 68.9436 41.6842 67.917C40.6433 66.8761 40.0696 65.4914 40.0696 64.0191V59.8698C40.0696 58.3974 40.6433 57.0128 41.6842 55.9719C42.7109 54.9453 44.1311 54.3573 45.5821 54.3573H46.2934V53.646C46.2934 51.6188 47.083 49.7125 48.515 48.2804C49.9495 46.8483 51.8534 46.0588 53.8806 46.0588H58.1531L58.3428 45.6463C58.4993 45.3096 58.6771 44.9824 58.8763 44.6765L59.0873 44.3493L58.9261 43.996C57.6125 41.1271 57.4228 37.8931 58.3926 34.8914C59.3623 31.8898 61.4061 29.3765 64.1493 27.8164L64.1754 27.8022C66.4065 26.3772 68.9767 25.6256 71.6156 25.6256C72.0139 25.6256 72.417 25.6422 72.8129 25.6778C75.8288 25.941 78.7191 27.2118 80.9502 29.258L81.3201 29.597L81.7634 29.3623C83.416 28.4898 85.0188 28.0488 86.5244 28.0488C89.3601 28.0488 91.4679 29.5781 93.1584 31.0718L93.3007 31.1974L93.488 31.2354C101.4 32.8595 108.065 38.244 111.32 45.6391L111.507 46.0635H116.121C118.149 46.0635 120.053 46.8531 121.487 48.2852C122.919 49.7172 123.709 51.6235 123.709 53.6507V54.362H124.42C125.871 54.362 127.291 54.95 128.318 55.9767C129.344 57.0033 129.932 58.4022 129.932 59.8746V64.0238C129.932 65.4962 129.359 66.8808 128.318 67.9217C127.291 68.9483 125.871 69.5364 124.42 69.5364H123.713L123.709 70.2429C123.699 71.9073 123.13 73.5481 122.106 74.8616C121.082 76.1751 119.631 77.1283 118.018 77.5456L117.485 77.6831V86.7592C117.485 87.1172 117.34 87.4705 117.086 87.7242C116.833 87.9779 116.482 88.1225 116.121 88.1225H107.06L106.846 88.3739C104.667 90.9322 102.085 93.0803 99.1712 94.7518L98.4789 95.1502L102.237 100.229H141.045C141.939 100.236 142.816 100.603 143.449 101.236C144.09 101.877 144.457 102.763 144.457 103.667V132.711C144.457 133.617 144.09 134.504 143.449 135.142C142.809 135.779 141.923 136.149 141.019 136.149H119.562V143.001C119.562 143.359 119.417 143.713 119.163 143.966C118.91 144.22 118.559 144.365 118.198 144.365H42.3908V144.37ZM56.4081 135.953C55.5189 136.711 54.5539 137.382 53.5368 137.947L53.1693 138.15V141.728H116.83V136.156H95.3729C94.4672 136.156 93.5804 135.789 92.9426 135.149C92.3048 134.509 91.935 133.622 91.935 132.718V111.512L86.1569 121.001C85.9103 121.397 85.4788 121.634 85.0069 121.634C84.5351 121.627 84.0917 121.366 83.8546 120.951L75.1934 107.083L74.7666 107.112C70.7241 107.389 66.8167 108.736 63.4618 111.007L61.5436 112.307H63.4523L65.4463 115.747C65.7806 116.335 65.6288 117.089 65.0883 117.501L61.8803 119.965L61.9586 120.392C62.3213 122.371 62.3213 124.38 61.9586 126.359L61.8803 126.791L65.093 129.214C65.6288 129.624 65.7806 130.378 65.4439 130.969L62.1672 136.652C61.9254 137.069 61.4725 137.328 60.9888 137.328C60.8086 137.328 60.6332 137.292 60.4648 137.221L56.7424 135.661L56.4104 135.945L56.4081 135.953ZM34.7348 132.816C35.1 132.816 35.4438 132.958 35.7022 133.219C37.4425 134.978 39.6286 136.242 42.0209 136.87C42.552 137.015 42.9408 137.463 43.0096 138.013L43.5075 141.728H47.6591L48.1546 137.935C48.2258 137.377 48.6217 136.929 49.1647 136.787C51.557 136.164 53.7431 134.909 55.4857 133.157C55.7442 132.896 56.088 132.754 56.4531 132.754C56.6309 132.754 56.8064 132.79 56.9724 132.856L60.4103 134.3L62.4849 130.682L59.5212 128.415C59.0754 128.076 58.881 127.507 59.028 126.969C59.699 124.586 59.699 122.066 59.028 119.678C58.8905 119.152 59.0825 118.592 59.5212 118.258L62.4849 115.991L60.4079 112.373L56.9439 113.843C56.785 113.909 56.612 113.943 56.4341 113.943C56.069 113.943 55.7252 113.8 55.4668 113.54C53.7288 111.773 51.5428 110.505 49.1481 109.869C48.6194 109.727 48.2305 109.284 48.157 108.738L47.6591 105.032H43.5099L43.012 108.762C42.9385 109.305 42.5473 109.748 42.0162 109.891C39.6262 110.521 37.4401 111.785 35.6998 113.542C35.4461 113.796 35.1047 113.936 34.742 113.936C34.557 113.936 34.3744 113.898 34.2037 113.824L30.754 112.373L28.7054 115.994L31.6668 118.258C32.1054 118.595 32.2975 119.156 32.1576 119.69C31.4866 122.068 31.489 124.588 32.1599 126.974C32.3069 127.509 32.1125 128.074 31.6692 128.413L28.6817 130.677L30.7516 134.286L34.2085 132.918C34.3816 132.847 34.557 132.811 34.7348 132.811V132.816ZM94.6664 133.427H141.728V103.043H102.595C101.547 103.043 100.57 102.571 99.9157 101.753L95.9064 96.7363H94.6664V133.427ZM65.3372 51.3224C63.4143 52.1712 61.5318 53.1575 59.7369 54.2506L59.3955 54.4592V72.8866L59.4002 72.9269C60.1044 79.2361 63.0966 85.0426 67.8244 89.2772C72.5521 93.5142 78.6527 95.8496 85.0022 95.8591C91.1692 95.7239 97.144 93.4525 101.834 89.4645L103.306 88.2103H90.2468L90.0785 88.6845C89.4976 90.3252 88.158 91.6079 86.4935 92.1177C85.9696 92.2789 85.4266 92.3595 84.8789 92.3595C83.691 92.3595 82.5577 91.9849 81.5998 91.2783C80.2009 90.2422 79.3664 88.5873 79.3664 86.847C79.3664 85.1066 80.2009 83.4493 81.5998 82.4156C82.5553 81.709 83.6887 81.3344 84.8789 81.3344C85.4266 81.3344 85.9696 81.415 86.4912 81.5762C88.1556 82.086 89.4952 83.3687 90.0761 85.0094L90.2445 85.4836H105.632L105.846 85.192C108.468 81.5928 110.113 77.3511 110.604 72.9221L110.609 72.8818V55.1468L109.924 55.1207C102.972 54.8599 97.8127 50.6111 93.6682 47.1969C93.0138 46.6563 92.4044 46.156 91.8117 45.6889L91.4252 45.3854L91.0032 45.6391C89.5877 46.4903 87.9683 46.9408 86.3157 46.9408C85.2891 46.9408 84.2767 46.7677 83.3069 46.4263L82.8327 46.2603L82.5174 46.6516C80.559 49.0771 77.939 50.8032 74.935 51.6425C73.6309 52.0076 72.2818 52.1926 70.928 52.1926C69.1972 52.1926 67.4924 51.8938 65.8636 51.3058L65.5956 51.2086L65.3348 51.3248L65.3372 51.3224ZM85.0022 84.061C83.8712 84.061 82.8612 84.7368 82.4297 85.78C81.9958 86.8256 82.2329 88.0159 83.0343 88.8172C83.5606 89.3436 84.2601 89.6329 85.0046 89.6329C85.3721 89.6329 85.7301 89.5617 86.0715 89.4195C87.1171 88.9856 87.7905 87.9755 87.7905 86.847C87.7905 86.1025 87.5012 85.403 86.9749 84.8767C86.4485 84.3503 85.7491 84.061 85.0046 84.061H85.0022ZM112.266 78.3398C111.619 80.4595 110.72 82.5033 109.594 84.4096L108.961 85.4813H114.756V77.8348H112.418L112.264 78.3375L112.266 78.3398ZM113.336 75.1105H116.121C117.421 75.1105 118.642 74.6055 119.559 73.6856C120.477 72.768 120.982 71.547 120.982 70.25V53.6531C120.982 52.3538 120.477 51.1351 119.559 50.2151C118.656 49.3094 117.402 48.7926 116.121 48.7926H113.336V75.1105ZM53.883 48.7926C52.6026 48.7926 51.3507 49.3118 50.445 50.2151C49.5274 51.1327 49.0224 52.3538 49.0224 53.6531V70.25C49.0224 71.547 49.5274 72.768 50.445 73.6856C51.3626 74.6032 52.5837 75.1105 53.883 75.1105H56.6689V48.7926H53.883ZM123.709 66.8121H124.42C125.153 66.8121 125.871 66.5157 126.39 65.9965C126.917 65.4701 127.206 64.7707 127.206 64.0262V59.8769C127.206 59.1324 126.917 58.433 126.39 57.9066C125.871 57.3874 125.155 57.091 124.42 57.091H123.709V66.8121ZM45.5845 57.091C44.0481 57.091 42.7986 58.3405 42.7986 59.8769V64.0262C42.7986 65.5626 44.0481 66.8121 45.5845 66.8121H46.2958V57.091H45.5845ZM91.9539 42.4715C93.4343 43.3911 95.019 44.5614 96.6945 45.7987L96.7481 45.8383L96.7554 45.8437C101.064 49.0263 105.513 52.3135 109.369 52.3135C109.466 52.3135 109.563 52.3135 109.66 52.3064L110.483 52.2708L110.327 51.4623C109.476 47.0428 107.335 43.0358 104.134 39.8753C100.933 36.7124 96.8998 34.6188 92.4732 33.8221C92.2266 33.7818 92.0037 33.6775 91.8259 33.5163C90.299 32.1767 88.7223 30.7944 86.4888 30.7944C85.0591 30.7944 83.5322 31.3681 81.8203 32.5465C81.5856 32.7101 81.3177 32.7955 81.0379 32.7955C80.604 32.7955 80.1915 32.5868 79.9354 32.2359C78.0647 29.7298 75.229 28.3499 71.9523 28.3499C69.7425 28.3499 67.483 28.9853 65.5885 30.14C63.2626 31.4582 61.5318 33.7083 60.8418 36.3093C60.1542 38.9008 60.5454 41.7104 61.9111 44.0174C62.1364 44.4987 62.0392 45.1057 61.6622 45.5111L61.6456 45.5301L61.6171 45.5656C60.6948 46.7701 60.0665 48.1974 59.8009 49.6912L59.5473 51.1256L60.8347 50.4451C62.2691 49.6864 63.7605 49.0012 65.2708 48.4085C65.4107 48.3634 65.5719 48.3397 65.7332 48.3397C66.0248 48.3397 66.3093 48.4203 66.5583 48.5744L66.5915 48.5958L66.627 48.6124C67.9785 49.2525 69.4841 49.5916 70.9802 49.5916C72.0566 49.5916 73.1188 49.4232 74.1407 49.0889C77.0333 48.4488 79.5252 46.5757 80.9549 43.9534L80.9715 43.9202C81.1991 43.4412 81.6828 43.133 82.2068 43.133C82.3704 43.133 82.534 43.1638 82.6881 43.2207C83.7859 43.7969 85.0212 44.1004 86.2612 44.1004C86.4461 44.1004 86.6334 44.0933 86.8184 44.079C88.2576 43.9747 89.6351 43.4673 90.8016 42.6138C91.0103 42.4786 91.2664 42.4027 91.5295 42.4027C91.6718 42.4027 91.8141 42.4241 91.9492 42.4691L91.9539 42.4715ZM64.2542 47.4316C64.2827 47.0428 64.3301 46.6539 64.3988 46.2698C64.2518 46.6397 64.1736 47.0333 64.1712 47.4316H64.2542ZM105.747 115.41C104.995 115.41 104.383 114.799 104.383 114.047C104.383 113.295 104.995 112.684 105.747 112.684H132.717C133.468 112.684 134.08 113.295 134.08 114.047C134.08 114.799 133.468 115.41 132.717 115.41H105.747ZM104.383 124.42C104.383 125.172 104.995 125.783 105.747 125.783H132.717C133.468 125.783 134.08 125.172 134.08 124.42C134.08 123.668 133.468 123.057 132.717 123.057H105.747C104.995 123.057 104.383 123.668 104.383 124.42ZM40.2168 128.707C41.6513 130.139 43.5552 130.928 45.5824 130.928C47.6096 130.928 49.5135 130.139 50.9479 128.707C52.38 127.272 53.1695 125.366 53.1695 123.341C53.1695 121.316 52.38 119.41 50.9479 117.978C49.5135 116.544 47.6096 115.754 45.5824 115.754C43.5552 115.754 41.6513 116.544 40.2168 117.978C38.7847 119.41 37.9952 121.314 37.9952 123.341C37.9952 125.368 38.7847 127.275 40.2168 128.707ZM42.1444 119.903C43.0501 119 44.302 118.481 45.5824 118.481C46.8627 118.481 48.1146 118.998 49.0203 119.903C49.9379 120.823 50.4429 122.061 50.4429 123.341C50.4429 124.622 49.926 125.876 49.0203 126.779C48.1146 127.683 46.8627 128.202 45.5824 128.202C44.302 128.202 43.0478 127.685 42.1444 126.779C41.2411 125.873 40.7218 124.641 40.7218 123.341C40.7218 122.042 41.2268 120.823 42.1444 119.903Z" fill="#001CCC"/>
</g>
<defs>
<clipPath id="clip0_287_292">
<rect width="170" height="170" fill="white"/>
</clipPath>
</defs>
</svg>
